<svg width="26" height="26" viewBox="0 0 26 26" fill="none" xmlns="http://www.w3.org/2000/svg">
<g clip-path="url(#clip0_39_118)">
<path d="M15.866 0.0602158C15.806 0.085189 15.7111 0.170098 15.6512 0.245017C15.5463 0.379872 15.5413 0.404845 15.5563 1.90324L15.5713 3.4216L15.7111 3.54148C15.9159 3.71629 16.2056 3.7063 16.4004 3.5165L16.5452 3.37166V1.86827V0.364888L16.4104 0.215049C16.2605 0.0552212 16.0358 -0.00970908 15.866 0.0602158Z" fill="#6776FE"/>
<path d="M11.4957 1.00919C11.3808 1.12407 11.3508 1.19899 11.3508 1.3688C11.3508 1.57358 11.3658 1.59356 12.3597 2.59748C13.3736 3.61639 13.5135 3.72128 13.7832 3.67133C13.993 3.63137 14.1478 3.4216 14.1478 3.17187C14.1478 2.94711 14.1478 2.94711 13.2638 2.04807C12.7743 1.5536 12.2848 1.0891 12.1799 1.00919C11.9202 0.814399 11.6904 0.814399 11.4957 1.00919Z" fill="#6776FE"/>
<path d="M19.9116 1.00919C19.8067 1.08411 19.3172 1.5586 18.8328 2.05307C17.9487 2.94711 17.9437 2.9571 17.9437 3.17686C17.9437 3.4216 18.0986 3.63137 18.3083 3.67133C18.578 3.72128 18.7179 3.61639 19.7318 2.59748C20.7257 1.59356 20.7407 1.57358 20.7407 1.3688C20.7407 1.19899 20.7108 1.12407 20.5959 1.00919C20.4011 0.814399 20.1763 0.814399 19.9116 1.00919Z" fill="#6776FE"/>
<path d="M12.2998 5.0998C12.2349 5.14974 11.7854 5.86397 11.3009 6.68809L10.4168 8.18148L8.98836 8.19647L7.5549 8.20646V7.78691C7.5549 7.03771 7.30018 6.50329 6.76575 6.12369C6.1614 5.69416 5.28234 5.70914 4.69797 6.15866C4.18852 6.54824 3.95876 7.05769 3.95876 7.78691V8.20646H3.16961C2.63519 8.20646 2.29056 8.23143 2.09577 8.28138C1.15677 8.52611 0.457525 9.23535 0.237761 10.1644C0.127879 10.6438 0.127879 23.1604 0.237761 23.6349C0.437547 24.484 1.08685 25.1732 1.96091 25.4679C2.22563 25.5578 2.61521 25.5628 12.9491 25.5628H23.6626L23.9922 25.4479C24.4168 25.3031 24.6965 25.1233 25.0261 24.7836C25.3208 24.484 25.5955 23.9695 25.6804 23.55C25.7204 23.3652 25.7354 21.3373 25.7354 16.8821C25.7354 9.82971 25.7454 10.1494 25.4207 9.53503C25.2359 9.17542 24.8064 8.73089 24.4817 8.54609C23.9773 8.27139 23.8324 8.24142 22.7186 8.21145L21.6747 8.18148L20.7907 6.68809C20.3062 5.86397 19.8567 5.14974 19.7918 5.0998C19.6869 5.01489 19.4921 5.00989 16.0458 5.00989C12.5995 5.00989 12.4047 5.01489 12.2998 5.0998ZM19.8617 7.07767C20.2063 7.66704 20.491 8.1615 20.491 8.17649C20.491 8.19147 18.4932 8.20646 16.0458 8.20646C13.5984 8.20646 11.6006 8.19147 11.6006 8.17649C11.6006 8.1615 11.8853 7.66704 12.2299 7.07767L12.8592 6.00882H16.0458H19.2324L19.8617 7.07767ZM6.1564 6.91784C6.46607 7.12762 6.531 7.26747 6.54599 7.76193L6.56596 8.20646H5.75683H4.9477L4.96768 7.76193C4.97767 7.40232 5.00264 7.28744 5.08755 7.17257C5.26236 6.93283 5.49711 6.80796 5.75683 6.80796C5.91666 6.80796 6.04153 6.84292 6.1564 6.91784ZM23.8574 9.35023C24.1621 9.50007 24.4418 9.78476 24.5966 10.0944L24.7115 10.3292V16.8971V23.4651L24.5766 23.7148C24.4068 24.0394 24.0722 24.3491 23.7575 24.469C23.5178 24.5589 23.2181 24.5639 12.9491 24.5639C2.68014 24.5639 2.38046 24.5589 2.14072 24.469C1.82606 24.3491 1.49141 24.0394 1.3216 23.7148L1.18674 23.4651L1.17176 17.022C1.16177 12.4519 1.17675 10.514 1.21172 10.3541C1.32659 9.88965 1.72616 9.45511 2.19566 9.2803C2.35549 9.22536 4.04367 9.21537 12.9991 9.22037L23.6127 9.23036L23.8574 9.35023Z" fill="#6776FE"/>
<path d="M15.0319 10.6738C14.5973 10.7537 14.0379 10.9135 13.6883 11.0634C13.4636 11.1583 13.2987 11.3681 13.2987 11.5628C13.2987 11.6927 13.4885 11.9374 13.6384 11.9974C13.7782 12.0573 13.8431 12.0473 14.2727 11.9025C15.7461 11.413 17.2045 11.5179 18.5231 12.2221C20.8256 13.4458 21.8945 16.1729 21.0354 18.6253C20.471 20.2485 19.1624 21.4872 17.5092 21.9667C14.8171 22.7508 11.9801 21.2774 11.0561 18.6253C10.6516 17.4715 10.6666 16.098 11.1011 14.9992C11.2859 14.5297 11.1111 14.175 10.6915 14.175C10.4068 14.175 10.247 14.3748 10.0622 14.9592C9.83245 15.6884 9.77751 16.053 9.77751 16.8971C9.77751 18.2407 10.0972 19.2895 10.8414 20.4183C11.1361 20.8629 11.8153 21.5721 12.2998 21.9367C12.9941 22.4611 13.983 22.8957 14.882 23.0755C15.4764 23.1904 16.6152 23.1904 17.2045 23.0755C19.1524 22.6909 20.7857 21.4422 21.6797 19.6691C22.6237 17.7961 22.5338 15.4786 21.45 13.6856C20.521 12.1472 19.0975 11.1233 17.3194 10.7237C16.8349 10.6139 15.5313 10.5889 15.0319 10.6738Z" fill="#6776FE"/>
<path d="M4.17853 12.392C3.9238 12.5967 3.89383 12.8764 4.10361 13.1112L4.24845 13.276H5.75683H7.26521L7.41005 13.1112C7.56489 12.9364 7.58986 12.7815 7.49496 12.5768C7.37509 12.317 7.28519 12.302 5.72187 12.302C4.43325 12.302 4.27342 12.312 4.17853 12.392Z" fill="#6776FE"/>
<path d="M11.6857 12.3561C11.5757 12.4211 11.4507 12.6611 11.4507 12.8211C11.4507 12.8911 11.5157 13.021 11.5957 13.111C11.7157 13.246 11.7757 13.276 11.9506 13.276C12.4506 13.276 12.6306 12.6011 12.1956 12.3711C12.0356 12.2911 11.8157 12.2811 11.6857 12.3561Z" fill="#6776FE"/>
<path d="M15.2466 12.8764C14.0379 13.1212 12.999 13.9003 12.4297 14.9991C12.14 15.5536 12.0051 16.053 11.9651 16.6723C11.8053 19.4594 14.4874 21.5921 17.1795 20.8129C19.6419 20.0987 20.8456 17.3416 19.6918 15.0541C18.8727 13.4208 17.0297 12.5168 15.2466 12.8764ZM16.8199 13.9003C17.9138 14.18 18.8378 15.134 19.0675 16.2278C19.4072 17.8211 18.4532 19.3994 16.8699 19.8739C16.4453 20.0038 15.5813 19.9938 15.1617 19.8589C13.6034 19.3495 12.6894 17.8011 13.024 16.2278C13.1938 15.4237 13.8182 14.5896 14.5524 14.18C15.2216 13.8104 16.0607 13.7055 16.8199 13.9003Z" fill="#6776FE"/>
<path d="M15.866 14.9492C15.806 14.9692 15.7111 15.0541 15.6462 15.134C15.5613 15.2439 15.5413 15.3138 15.5613 15.4736C15.5963 15.7384 15.7611 15.8732 16.0957 15.9182C16.2406 15.9381 16.4204 15.9831 16.4953 16.0231C16.7101 16.1329 16.9348 16.4276 16.9698 16.6324C17.0447 17.0669 17.1146 17.2168 17.2994 17.3167C17.5092 17.4315 17.694 17.4016 17.8788 17.2168C17.9937 17.1019 18.0037 17.0619 17.9837 16.7323C17.9338 15.8532 17.2695 15.119 16.3754 14.9542C16.0308 14.8893 16.0058 14.8893 15.866 14.9492Z" fill="#6776FE"/>
</g>
<defs>
<clipPath id="clip0_39_118">
<rect width="25.5725" height="25.5725" fill="white" transform="translate(0.162842 0.0152588)"/>
</clipPath>
</defs>
</svg>
