<svg width="27" height="24" viewBox="0 0 27 24" fill="none" xmlns="http://www.w3.org/2000/svg">
<path d="M2.75 3.24988L4.83 3.60988L5.793 15.0829C5.87 16.0199 6.653 16.7389 7.593 16.7359H18.502C19.399 16.7379 20.16 16.0779 20.287 15.1899L21.236 8.63188C21.342 7.89888 20.833 7.21888 20.101 7.11288C20.037 7.10388 5.164 7.09888 5.164 7.09888" stroke="#AAACAE" stroke-width="1.5" stroke-linecap="round" stroke-linejoin="round"/>
<path d="M14.125 10.7948H16.898" stroke="#130F26" stroke-opacity="0.4" stroke-width="1.5" stroke-linecap="round" stroke-linejoin="round"/>
<path fill-rule="evenodd" clip-rule="evenodd" d="M7.15435 20.2025C7.45535 20.2025 7.69835 20.4465 7.69835 20.7465C7.69835 21.0475 7.45535 21.2915 7.15435 21.2915C6.85335 21.2915 6.61035 21.0475 6.61035 20.7465C6.61035 20.4465 6.85335 20.2025 7.15435 20.2025Z" fill="#AAACAE" stroke="#AAACAE" stroke-width="1.5" stroke-linecap="round" stroke-linejoin="round"/>
<path fill-rule="evenodd" clip-rule="evenodd" d="M18.4346 20.2025C18.7356 20.2025 18.9796 20.4465 18.9796 20.7465C18.9796 21.0475 18.7356 21.2915 18.4346 21.2915C18.1336 21.2915 17.8906 21.0475 17.8906 20.7465C17.8906 20.4465 18.1336 20.2025 18.4346 20.2025Z" fill="#130F26" fill-opacity="0.4" stroke="#130F26" stroke-opacity="0.4" stroke-width="1.5" stroke-linecap="round" stroke-linejoin="round"/>
<circle cx="21.5" cy="5.5" r="5" fill="#6776FE" stroke="white"/>
<path d="M22.6245 7H20.2954V6.67529L21.5259 5.30811C21.7082 5.1014 21.8335 4.93376 21.9019 4.80518C21.9718 4.67497 22.0068 4.54069 22.0068 4.40234C22.0068 4.2168 21.9507 4.06462 21.8384 3.9458C21.7261 3.82699 21.5763 3.76758 21.3892 3.76758C21.1646 3.76758 20.9896 3.83187 20.8643 3.96045C20.7406 4.0874 20.6787 4.26481 20.6787 4.49268H20.2271C20.2271 4.16553 20.332 3.90104 20.542 3.69922C20.7536 3.4974 21.036 3.39648 21.3892 3.39648C21.7196 3.39648 21.9808 3.48356 22.1729 3.65771C22.3649 3.83024 22.4609 4.06055 22.4609 4.34863C22.4609 4.69857 22.238 5.11523 21.792 5.59863L20.8398 6.63135H22.6245V7Z" fill="white"/>
</svg>
