<svg width="26" height="26" viewBox="0 0 26 26" fill="none" xmlns="http://www.w3.org/2000/svg">
<g clip-path="url(#clip0_39_163)">
<path d="M6.07338 4.48045C5.51398 4.58534 5.18933 4.70521 4.75479 4.95494C2.83186 6.05876 1.37343 8.95564 0.619237 13.1511C0.369506 14.5546 0.294586 15.3588 0.294586 16.6474C0.294586 17.916 0.344532 18.4405 0.549312 19.1447C0.998829 20.713 2.09265 21.4322 3.54609 21.1176C4.71484 20.8678 6.09835 19.9938 8.06124 18.2706C8.81543 17.6063 9.20501 17.3616 9.91924 17.0919C12.0769 16.2728 15.2935 16.4526 17.0366 17.4865C17.2264 17.6014 17.6809 17.956 18.0405 18.2706C20.5478 20.4733 22.1861 21.3373 23.5246 21.1575C24.6984 21.0027 25.4226 20.1037 25.7173 18.4205C25.8421 17.7162 25.8421 15.7533 25.7223 14.7494C25.3527 11.6927 24.4936 8.79082 23.4747 7.15757C22.5656 5.70913 21.6117 4.89001 20.418 4.55038C20.0783 4.45548 19.9035 4.4355 19.2442 4.4355C18.3502 4.4355 18.0905 4.48045 16.0377 4.98491C14.4294 5.37449 13.6103 5.52433 13.0509 5.52433C12.5065 5.52433 11.7423 5.38947 10.0741 4.9899C9.33487 4.81509 8.4708 4.6203 8.15614 4.56536C7.40195 4.42551 6.54287 4.39055 6.07338 4.48045ZM8.43084 5.78405C8.76049 5.85398 9.38981 6.00381 9.82434 6.1137C11.7922 6.60817 12.7362 6.74801 13.5154 6.65811C14.2546 6.5782 14.7291 6.4833 16.0976 6.15865C18.1204 5.67916 18.3352 5.63921 19.0944 5.6442C19.6887 5.6442 19.8186 5.65918 20.1682 5.77406C21.2621 6.13867 22.0662 6.96278 22.8404 8.50613C23.5995 10.0195 24.124 11.9075 24.4986 14.4597C24.6434 15.4636 24.6634 17.7862 24.5285 18.3955C24.2339 19.759 23.6944 20.2135 22.6705 19.9738C21.7216 19.749 20.5129 18.9649 18.8446 17.4765C17.8807 16.6224 17.3413 16.2728 16.4822 15.9631C15.4683 15.5985 14.6591 15.4537 13.4005 15.4137C12.022 15.3737 11.0031 15.5036 9.82934 15.8832C8.79045 16.2178 8.03627 16.6773 6.93245 17.6713C6.08336 18.4305 4.99453 19.2246 4.36022 19.5443C3.13154 20.1636 2.35737 20.1186 1.92783 19.3994C1.72805 19.0648 1.63315 18.7651 1.53325 18.1208C1.42337 17.4415 1.46333 15.4287 1.60817 14.4148C2.07268 11.1033 3.05662 8.33131 4.27531 6.91284C4.80973 6.28851 5.54394 5.82401 6.2332 5.68416C6.75265 5.57927 7.68664 5.61923 8.43084 5.78405Z" fill="#6776FE"/>
<path d="M6.87752 7.61208C6.50791 7.65703 6.10335 7.86181 5.83364 8.13152C5.5889 8.37626 5.3092 8.8957 5.3092 9.11047C5.3092 9.24533 5.22929 9.30526 5.04948 9.30526C4.99454 9.30526 4.80974 9.37019 4.63493 9.4551C3.83579 9.83969 3.41624 10.7038 3.63101 11.5379C3.81081 12.2471 4.26532 12.7066 4.97956 12.9014C5.27424 12.9863 5.28423 12.9913 5.31919 13.1861C5.4041 13.6856 5.85362 14.24 6.36307 14.4697C7.32703 14.9142 8.4758 14.4298 8.8504 13.4258C8.91033 13.271 8.95528 13.1062 8.95528 13.0562C8.95528 12.9863 9.00523 12.9563 9.16006 12.9314C9.69449 12.8465 10.2389 12.4069 10.4936 11.8625C10.6784 11.4729 10.6884 10.8086 10.5136 10.4291C10.2239 9.79474 9.7744 9.43512 9.10013 9.28528C8.99524 9.26031 8.96028 9.22035 8.93531 9.07052C8.88536 8.76085 8.68557 8.39624 8.42585 8.13652C8.01629 7.72696 7.46189 7.53716 6.87752 7.61208ZM7.49186 8.83577C7.70163 8.96563 7.76656 9.13545 7.80652 9.62991C7.85646 10.2992 8.01629 10.454 8.65561 10.454C9.07016 10.454 9.26495 10.5339 9.4048 10.7687C9.59959 11.0834 9.47972 11.5528 9.17005 11.7027C9.09014 11.7376 8.84041 11.7776 8.60566 11.7926C7.96635 11.8276 7.80652 11.9824 7.80652 12.5767C7.80652 13.1661 7.57677 13.4508 7.10228 13.4508C6.67773 13.4508 6.45797 13.1661 6.45797 12.6267C6.45797 11.9824 6.2382 11.7526 5.61887 11.7526C5.04449 11.7526 4.75979 11.5329 4.75979 11.0883C4.75979 10.6838 5.04948 10.454 5.56892 10.449C6.24819 10.444 6.41801 10.2792 6.45797 9.57997C6.48294 9.14544 6.49792 9.09549 6.63278 8.95564C6.86753 8.7109 7.21715 8.66096 7.49186 8.83577Z" fill="#6776FE"/>
<path d="M18.1204 7.84684C17.3413 8.21145 17.2763 9.31026 18.0055 9.78975C18.1853 9.90962 18.2603 9.9296 18.5899 9.9296C18.9196 9.9296 18.9995 9.90962 19.1793 9.78975C19.2992 9.71483 19.454 9.55999 19.5289 9.44512C19.6488 9.26531 19.6688 9.19039 19.6688 8.85575C19.6688 8.52111 19.6488 8.44619 19.5289 8.26639C19.3141 7.94174 19.0444 7.7869 18.6498 7.76692C18.4051 7.75693 18.2653 7.77691 18.1204 7.84684Z" fill="#6776FE"/>
<path d="M15.9727 10.0595C15.743 10.1244 15.4233 10.4241 15.3234 10.6638C15.0188 11.413 15.5282 12.2072 16.3124 12.2072C16.7869 12.2072 17.1365 11.9924 17.3263 11.5828C17.5261 11.1533 17.4661 10.7387 17.1565 10.3941C16.8468 10.0495 16.4173 9.9296 15.9727 10.0595Z" fill="#6776FE"/>
<path d="M20.418 10.0994C19.8336 10.3691 19.5939 11.0034 19.8636 11.5778C20.0634 12.0074 20.388 12.2072 20.8675 12.2072C21.4618 12.2072 21.9463 11.7227 21.9463 11.1333C21.9463 10.6488 21.7465 10.3242 21.317 10.1244C21.0173 9.97955 20.6927 9.96956 20.418 10.0994Z" fill="#6776FE"/>
<path d="M18.2453 12.327C17.2364 12.6417 17.2663 14.1351 18.2902 14.4348C18.9895 14.6345 19.6887 14.1101 19.6937 13.3859C19.6937 12.9064 19.3691 12.4569 18.9245 12.327C18.6249 12.2371 18.54 12.2371 18.2453 12.327Z" fill="#6776FE"/>
</g>
<defs>
<clipPath id="clip0_39_163">
<rect width="25.5725" height="25.5725" fill="white" transform="translate(0.264618 0.0152588)"/>
</clipPath>
</defs>
</svg>
