<svg width="27" height="26" viewBox="0 0 27 26" fill="none" xmlns="http://www.w3.org/2000/svg">
<g clip-path="url(#clip0_39_134)">
<path d="M12.4068 0.070205C9.97939 0.284974 7.46709 1.31387 5.53417 2.88718C4.96478 3.34668 4.06575 4.25571 3.61623 4.8201C2.47246 6.25356 1.53347 8.19148 1.14389 9.92961C0.899149 11.0184 0.844208 11.5529 0.844208 12.8015C0.844208 14.0502 0.899149 14.5846 1.14389 15.6734C1.53846 17.4465 2.50243 19.4144 3.68615 20.8679C4.14566 21.4372 5.05468 22.3363 5.61908 22.7858C7.05254 23.9296 8.99045 24.8686 10.7286 25.2581C11.8174 25.5029 12.3518 25.5578 13.6005 25.5578C14.8492 25.5578 15.3836 25.5029 16.4724 25.2581C17.776 24.9684 19.4842 24.2392 20.608 23.495C22.5509 22.2014 24.0443 20.5032 25.0682 18.4205C25.8923 16.7373 26.2969 15.134 26.3718 13.261C26.4866 10.2742 25.5327 7.35238 23.6497 4.91C23.2301 4.36559 22.0364 3.17187 21.492 2.75232C18.8548 0.719507 15.6783 -0.219484 12.4068 0.070205ZM15.2987 0.989217C15.963 1.08911 16.9119 1.31886 17.5662 1.54362C18.6351 1.91322 20.0685 2.70238 21.0125 3.45157C21.467 3.80619 22.5958 4.93498 22.9504 5.38949C23.6996 6.33347 24.4888 7.76693 24.8584 8.83579C25.3229 10.1993 25.5077 11.3181 25.5077 12.8015C25.5077 14.0152 25.4328 14.6445 25.1631 15.7234C24.0992 19.9389 20.7378 23.3002 16.5224 24.3641C15.4435 24.6338 14.8142 24.7087 13.6005 24.7087C12.1171 24.7087 10.9983 24.5239 9.63476 24.0594C8.56591 23.6898 7.13245 22.9007 6.18846 22.1515C5.73395 21.7969 4.60517 20.6681 4.25055 20.2136C3.50135 19.2696 2.7122 17.8361 2.3426 16.7673C2.11784 16.103 1.88809 15.164 1.7782 14.4498C1.65833 13.6556 1.65833 11.9474 1.7782 11.1533C1.97299 9.85969 2.32262 8.7309 2.88202 7.58213C3.51134 6.29851 4.13567 5.42445 5.17955 4.38057C5.91376 3.65136 6.29835 3.3317 7.06752 2.82225C8.65082 1.77837 10.5238 1.11908 12.4767 0.919293C13.091 0.854362 14.6594 0.894319 15.2987 0.989217Z" fill="#6776FE"/>
<path d="M12.9512 4.31564C12.0821 4.37558 10.7086 4.70522 10.4838 4.90501C10.334 5.03986 10.299 5.1947 10.3789 5.38949C10.4938 5.66919 10.6337 5.68917 11.223 5.51435C11.9523 5.29459 12.3968 5.20968 13.076 5.16972C13.7703 5.12477 14.5645 5.16972 15.0989 5.2846C15.3037 5.32955 15.5284 5.34953 15.6033 5.33455C15.7981 5.2896 15.918 5.13476 15.918 4.92499C15.918 4.66527 15.7532 4.5454 15.2437 4.4455C14.8641 4.37058 13.7403 4.25071 13.5505 4.27069C13.5106 4.27069 13.2409 4.29067 12.9512 4.31564Z" fill="#6776FE"/>
<path d="M8.2013 6.55323L8.05646 6.69808V8.76086V10.8186L8.69078 11.463L9.33009 12.1073L9.14529 15.8383C9.03041 18.0758 8.97547 19.6392 9.00044 19.7441C9.15028 20.3934 9.76462 20.8928 10.4039 20.8928C11.0582 20.8928 11.6576 20.4033 11.8074 19.7441C11.8324 19.6392 11.7775 18.0709 11.6626 15.8383L11.4778 12.1073L12.1171 11.463L12.7514 10.8186V8.76086V6.69808L12.6066 6.55323C12.4517 6.3984 12.3119 6.37343 12.1371 6.46832C11.9073 6.58819 11.9073 6.5832 11.9023 8.58105V10.479L11.3229 11.0534C11.0033 11.3681 10.7136 11.6927 10.6786 11.7776C10.6237 11.9025 10.6437 12.5318 10.8035 15.6934C10.9284 18.2207 10.9783 19.5093 10.9483 19.6242C10.8135 20.1087 10.1192 20.1586 9.89448 19.6941C9.81457 19.5293 9.81956 19.3445 9.99937 15.7234C10.1642 12.5318 10.1842 11.9025 10.1292 11.7776C10.0943 11.6927 9.80458 11.3681 9.48492 11.0534L8.90554 10.479V8.58105C8.90055 6.5832 8.90055 6.58819 8.6708 6.46832C8.49599 6.37343 8.35614 6.3984 8.2013 6.55323Z" fill="#6776FE"/>
<path d="M9.5798 6.46833C9.35504 6.5882 9.35504 6.58321 9.35504 8.54111V10.4091L9.47991 10.529C9.64473 10.6988 9.89446 10.6988 10.0593 10.524L10.1792 10.3941V8.52113V6.64814L10.0393 6.52827C9.88947 6.39841 9.73963 6.37843 9.5798 6.46833Z" fill="#6776FE"/>
<path d="M10.7685 6.52826L10.6287 6.64814V8.52112V10.3941L10.7486 10.524C10.9134 10.6988 11.1631 10.6988 11.3279 10.529L11.4528 10.4091V8.56108C11.4528 7.54717 11.4378 6.6781 11.4228 6.63315C11.3829 6.53825 11.1481 6.40839 11.0083 6.40839C10.9533 6.40839 10.8435 6.46333 10.7685 6.52826Z" fill="#6776FE"/>
<path d="M16.2976 6.47832C15.7582 6.63316 15.3136 6.98778 15.0839 7.44229C14.949 7.707 14.7043 8.47118 14.5645 9.05556C14.4446 9.57 14.4446 10.6538 14.5645 11.1034C14.7093 11.6378 15.019 12.0723 15.5184 12.4319L15.6633 12.5368L15.5034 16.103C15.3936 18.5753 15.3636 19.7191 15.3936 19.834C15.4785 20.1187 15.6982 20.4433 15.913 20.5982C16.7171 21.1775 17.8609 20.8379 18.1706 19.9189C18.2505 19.6841 18.2455 19.4943 18.0907 16.103L17.9308 12.5368L18.0757 12.4319C18.8499 11.8725 19.1146 11.2832 19.1146 10.1044C19.1146 9.37022 19.0646 9.08053 18.7699 8.13155C18.5002 7.25749 18.1606 6.83294 17.5213 6.55824C17.2116 6.42838 16.6073 6.38343 16.2976 6.47832ZM17.2815 7.37236C17.4563 7.46726 17.6861 7.68703 17.771 7.86184C17.9009 8.10657 18.2005 9.23536 18.2555 9.6649C18.3204 10.1694 18.2605 10.8237 18.1256 11.1083C17.9858 11.403 17.766 11.6278 17.4563 11.7926C17.2466 11.9025 17.1417 11.9974 17.1067 12.0923C17.0768 12.1822 17.1167 13.4309 17.2266 15.8732C17.3465 18.5004 17.3814 19.5643 17.3415 19.6791C17.2715 19.8889 17.0718 20.0138 16.7971 20.0138C16.5224 20.0138 16.3176 19.8889 16.2526 19.6791C16.2177 19.5643 16.2476 18.4804 16.3675 15.8732C16.4974 13.0912 16.5224 12.1922 16.4774 12.0873C16.4424 11.9974 16.3176 11.8925 16.1228 11.7826C15.7732 11.5928 15.4885 11.2532 15.3886 10.9086C15.2937 10.5739 15.3087 9.56501 15.4185 9.15545C15.6882 8.14154 15.8031 7.84685 16.0129 7.6221C16.1278 7.50222 16.3126 7.37236 16.4225 7.32741C16.6572 7.2425 17.0668 7.26248 17.2815 7.37236Z" fill="#6776FE"/>
<path d="M19.5241 7.27246C19.3094 7.48723 19.3443 7.68202 19.684 8.14153C20.2633 8.93068 20.588 9.54002 20.8577 10.3591C21.1724 11.2981 21.2173 11.6078 21.2173 12.8015C21.2173 13.9952 21.1724 14.3049 20.8577 15.2439C20.5131 16.2778 20.0386 17.0719 19.1445 18.1108C18.8548 18.4455 18.8199 18.6253 19.0197 18.82C19.1046 18.91 19.1945 18.9449 19.3243 18.9449C19.4892 18.9449 19.5491 18.91 19.7589 18.6802C20.7728 17.6014 21.482 16.3277 21.8317 14.9742C22.2662 13.296 22.2112 11.6677 21.6618 10.0545C21.3522 9.16043 20.7129 8.00168 20.1834 7.39233C19.9587 7.1376 19.7089 7.09265 19.5241 7.27246Z" fill="#6776FE"/>
<path d="M6.87274 7.65705C6.68295 7.73697 6.06361 8.75088 5.73397 9.53004C4.96479 11.3481 4.87989 13.5208 5.50921 15.4487C5.704 16.053 6.22344 17.1119 6.56807 17.6064C6.95765 18.1708 7.53703 18.8251 7.70685 18.895C7.90164 18.9749 8.08644 18.9249 8.19132 18.7651C8.33617 18.5404 8.29621 18.3755 8.0265 18.0709C6.7229 16.5875 6.08359 15.124 5.96372 13.3509C5.84385 11.6428 6.27838 9.97956 7.21238 8.56108C7.49707 8.13154 7.52704 7.92177 7.33225 7.73197C7.20738 7.60211 7.06254 7.58214 6.87274 7.65705Z" fill="#6776FE"/>
<path d="M12.3568 20.5632C12.152 20.7829 12.217 21.0876 12.4867 21.2175C12.6415 21.2924 12.8163 21.3074 13.5755 21.3074C14.6294 21.3074 14.8242 21.2674 14.9291 21.0177C15.009 20.8279 14.949 20.5732 14.8042 20.4982C14.7593 20.4733 14.2148 20.4533 13.5905 20.4483C12.4767 20.4483 12.4617 20.4533 12.3568 20.5632Z" fill="#6776FE"/>
</g>
<defs>
<clipPath id="clip0_39_134">
<rect width="25.5725" height="25.5725" fill="white" transform="translate(0.81424 0.0152588)"/>
</clipPath>
</defs>
</svg>
