<svg width="26" height="26" viewBox="0 0 26 26" fill="none" xmlns="http://www.w3.org/2000/svg">
<path d="M3.92032 0.101555C3.63594 0.274212 3.62071 0.380852 3.58008 2.05663C3.54454 3.57499 3.54454 3.58007 3.65626 3.71718C3.79844 3.89999 4.0625 3.91015 4.21485 3.74765C4.30118 3.65117 4.31641 3.56991 4.31641 3.12304C4.31641 2.83867 4.33165 2.18867 4.35196 1.68593L4.38243 0.761711H4.69727H5.01719L5.04258 1.55898C5.07305 2.44765 5.13399 2.75741 5.41329 3.32616C5.9211 4.3621 6.83516 5.12382 7.95235 5.44374C8.27227 5.53007 8.48555 5.55546 8.98828 5.55546C9.74492 5.56054 10.0801 5.48437 10.7402 5.15937C11.5477 4.7582 12.1621 4.14374 12.5684 3.32109C12.8324 2.78788 12.9492 2.26991 12.9848 1.45741L13.0152 0.761711H13.3098H13.5992L13.6348 1.2289C13.6551 1.48788 13.6602 2.53398 13.65 3.55468C13.6297 5.18984 13.6145 5.47929 13.5129 6.01757C13.3809 6.72851 12.6496 10.1105 12.6141 10.1664C12.5988 10.1918 10.9688 10.207 8.98828 10.207C5.60625 10.207 5.38789 10.2019 5.3625 10.1156C5.30664 9.92773 4.6211 6.74882 4.52461 6.2207C4.46875 5.91093 4.40782 5.51484 4.39258 5.33202C4.37227 5.14921 4.33672 4.94101 4.30625 4.86484C4.20469 4.59062 3.79336 4.5703 3.65118 4.82929C3.52422 5.07304 3.67657 6.00741 4.32149 8.95781L4.67696 10.5726L4.49922 10.9383C3.42774 13.1422 2.08204 18.4894 1.59454 22.4859L1.50821 23.207L1.61993 23.3289C1.72657 23.4457 1.76719 23.4508 2.65586 23.4762C4.09805 23.5168 4.84454 23.7047 7.51563 24.7051C9.1711 25.3246 9.98867 25.5887 10.7758 25.7664C12.1164 26.066 13.1828 26.0762 14.3203 25.7918C15.1074 25.5937 16.1637 25.0656 16.5242 24.6848L16.6766 24.5273L16.575 23.5676L16.4785 22.6078L16.707 22.5723C17.1691 22.5012 17.291 22.3844 17.55 21.7598C18.0375 20.6019 18.7941 19.5203 19.7488 18.6266C20.2617 18.1441 20.9676 17.682 21.0336 17.7836C21.0336 17.7937 21.0539 18.7687 21.0691 19.957C21.0996 21.9629 21.1047 22.1254 21.1961 22.2574C21.3637 22.5012 21.5516 22.5723 22.0898 22.5723C22.6789 22.5723 22.8617 22.491 23.009 22.1762C23.0953 21.9832 23.1055 21.8258 23.1055 20.4648C23.1055 19.368 23.1258 18.8957 23.1766 18.7078C23.2121 18.5656 23.4 18.1137 23.5828 17.6973C24.0195 16.7426 24.1211 16.3465 24.1211 15.6457C24.1211 14.041 23.5625 12.7207 22.7094 12.3043C22.4656 12.1875 22.3996 12.1773 21.9984 12.1976C21.0285 12.2586 20.3074 12.7156 19.6371 13.7109C19.4949 13.9191 19.0887 14.6758 18.7332 15.3867C18.002 16.8543 17.4484 17.7277 16.9152 18.266C16.3059 18.8754 15.8133 19.0328 15.3613 18.7687C15.148 18.6418 14.9957 18.4488 14.7723 18.0273C14.7062 17.9055 14.5691 17.748 14.4727 17.682C14.2543 17.5297 13.9953 17.55 13.3555 17.748C11.5578 18.3168 10.4254 19.434 10.0496 20.998C9.85156 21.8359 9.92266 22.293 10.273 22.4809C10.4203 22.5621 10.6641 22.5723 13.0609 22.5875L15.6914 22.6027L15.7168 22.7144C15.732 22.7754 15.7727 23.1359 15.8133 23.5117C15.8742 24.116 15.8742 24.2074 15.8031 24.2836C15.6762 24.4359 14.7672 24.8726 14.3152 25.0047C13.3859 25.2687 12.2992 25.2992 11.2379 25.0859C10.3797 24.9133 9.56211 24.6543 7.79492 23.9941C5.21016 23.0293 4.26055 22.7754 3.01133 22.7144C2.64063 22.6992 2.33594 22.6789 2.33594 22.6687C2.33594 22.5976 2.56954 21.0437 2.6711 20.4394C3.24493 17.0269 4.28594 13.1879 5.12891 11.3851L5.32696 10.9687H6.19024C6.67774 10.9687 7.0586 10.9891 7.0586 11.0144C7.0586 11.0398 7.00274 11.4207 6.93672 11.8676C6.86563 12.3094 6.77422 12.9848 6.72344 13.3656C6.64727 14.0156 6.64727 14.0766 6.72344 14.1934C6.87071 14.4168 7.19571 14.4219 7.33282 14.2035C7.37344 14.1426 7.46485 13.6246 7.54102 13.0508C7.61211 12.4769 7.71368 11.7812 7.75938 11.5019L7.84571 10.9941H9.06446H10.2832L10.3695 11.4766C10.4152 11.7406 10.5168 12.4516 10.593 13.0508C10.7199 14.0004 10.7504 14.1578 10.852 14.2543C10.9992 14.4066 11.1973 14.4016 11.3598 14.2391C11.4816 14.1172 11.4867 14.0867 11.4563 13.7719C11.4258 13.457 11.1668 11.6035 11.0906 11.1566L11.0551 10.9687H11.893H12.7309L12.9238 11.3851C13.4266 12.4871 13.9547 14.1223 14.5031 16.2754C14.7875 17.4027 14.8484 17.5195 15.1176 17.5195C15.2648 17.5195 15.4883 17.3062 15.4883 17.1641C15.4883 17.1031 15.407 16.7324 15.3055 16.3363C14.7418 14.0867 14.0766 12.0351 13.5332 10.8976L13.3402 10.4914L13.4723 9.88202C13.5434 9.54179 13.7312 8.68359 13.8836 7.96757C14.3965 5.62148 14.3762 5.75351 14.4066 3.55468C14.4168 2.47812 14.4066 1.3203 14.3812 0.974993C14.3406 0.365618 14.3305 0.345304 14.173 0.187883L14.0156 0.025383L13.3859 0.010149C12.3246 -0.020319 12.2535 0.0558529 12.218 1.29491C12.1977 1.98554 12.1773 2.16835 12.0656 2.51366C11.7457 3.52929 10.9992 4.30116 9.99375 4.66171C9.66875 4.77851 9.54688 4.79374 8.98828 4.79374C8.42969 4.79374 8.30782 4.77851 7.98282 4.66171C6.99766 4.30624 6.2461 3.54452 5.93125 2.58984C5.84493 2.32577 5.81954 2.07695 5.79414 1.3457C5.7586 0.355461 5.73321 0.264055 5.46914 0.101555C5.33204 0.0152264 5.21016 -7.62939e-06 4.69727 -7.62939e-06C4.17422 -7.62939e-06 4.0625 0.0152264 3.92032 0.101555ZM22.5012 13.066C23.0191 13.4113 23.3949 14.6047 23.3492 15.7676C23.3238 16.4023 23.2832 16.5344 22.8516 17.4738C22.3641 18.525 22.3793 18.4488 22.3488 20.2363L22.3184 21.8105H22.0898H21.8613L21.8309 19.8047C21.8004 17.7176 21.775 17.4687 21.5617 17.1387C21.3383 16.7984 20.8152 16.8949 20.0332 17.4129C19.5863 17.7074 18.4996 18.7789 18.073 19.3476C17.5094 20.0992 16.9762 21.0641 16.7426 21.7445C16.7121 21.8309 16.5242 21.8359 13.7109 21.8359H10.7148V21.643C10.7148 21.3383 10.852 20.8812 11.0805 20.4141C11.248 20.0637 11.3699 19.9012 11.7305 19.5406C12.1215 19.1547 12.2434 19.0684 12.7512 18.8195C13.0711 18.6672 13.4926 18.4945 13.6957 18.4387L14.0613 18.3422L14.2238 18.6266C14.7672 19.5863 15.6812 19.8961 16.6156 19.4391C17.5398 18.9769 18.3625 17.8902 19.434 15.6914C20.1906 14.1375 20.607 13.5434 21.1656 13.2184C21.6531 12.9289 22.2066 12.868 22.5012 13.066Z" fill="#6776FE"/>
<path d="M16.2094 3.14842C16.0926 3.21952 15.991 3.35663 15.8894 3.57499C15.7219 3.93553 15.7269 4.11327 15.9098 4.24022C16.1484 4.4078 16.4227 4.28085 16.5496 3.94569L16.6055 3.80858H17.3418H18.0781L18.0477 3.94569C18.0223 4.09296 17.7734 5.83475 17.7734 5.8703C17.7734 5.88046 17.3164 5.89061 16.7578 5.89061C16.1992 5.89061 15.7422 5.88046 15.7422 5.8703C15.7422 5.86014 15.7777 5.76874 15.8184 5.67225C15.9758 5.29647 15.8488 5.02733 15.5238 5.02733C15.3004 5.02733 15.2344 5.10858 14.9855 5.68241C14.7367 6.26131 14.6961 6.43397 14.7875 6.64217C14.8687 6.8453 19.0633 11.5629 19.2715 11.6898C19.5 11.8269 19.8047 11.8117 20.023 11.639C20.216 11.4918 24.3293 6.88592 24.4207 6.71327C24.5477 6.46952 24.4816 6.23592 23.923 4.92069C23.207 3.23983 23.2172 3.25506 23.0344 3.14335C22.8871 3.05194 22.7195 3.04686 19.6269 3.04686C16.4531 3.04686 16.3719 3.05194 16.2094 3.14842ZM20.5309 4.75819C20.607 5.28631 20.668 5.7535 20.668 5.79921C20.668 5.88553 20.5816 5.89061 19.5965 5.89061H18.525L18.5555 5.74842C18.5707 5.67225 18.6316 5.266 18.6875 4.8496C18.7434 4.42811 18.8043 4.02694 18.8195 3.94569L18.85 3.80858H19.6219H20.3988L20.5309 4.75819ZM22.8465 4.32655C22.9684 4.616 23.1664 5.08319 23.2883 5.37264L23.5066 5.89061L22.4809 5.88046L21.4551 5.86522L21.318 4.92577C21.2469 4.4078 21.1809 3.94569 21.1809 3.89491C21.1758 3.81874 21.2418 3.80858 21.9019 3.80858H22.6281L22.8465 4.32655ZM18.2355 8.32811C18.5098 9.23202 18.7281 9.9785 18.723 9.98358C18.718 9.98866 18.0426 9.2371 17.225 8.32303L15.7371 6.65233L16.7375 6.66249L17.7379 6.67772L18.2355 8.32811ZM20.668 6.78436C20.5359 7.11952 20.6781 7.42928 20.9625 7.42928C21.1859 7.42928 21.3129 7.29725 21.4094 6.95194L21.4957 6.65233H22.4809H23.466L23.3746 6.76913C23.1562 7.04842 20.5512 9.95311 20.5309 9.93788C20.5258 9.92772 20.607 9.61288 20.7187 9.2371C20.9422 8.49061 20.9371 8.34842 20.6883 8.23163C20.3328 8.07421 20.2262 8.22147 19.9012 9.30819C19.7488 9.81092 19.6168 10.1816 19.5965 10.1461C19.5711 10.0953 18.9516 8.07421 18.5555 6.73866C18.5301 6.65741 18.6062 6.65233 19.6219 6.65233H20.7187L20.668 6.78436Z" fill="#6776FE"/>
</svg>
