<svg width="25" height="25" viewBox="0 0 25 25" fill="none" xmlns="http://www.w3.org/2000/svg">
<g clip-path="url(#clip0_173_370)">
<path d="M12.2314 1.34765C10.791 1.66991 9.60937 2.75878 9.21875 4.13085C9.07226 4.64355 9.0625 5.5957 9.19433 6.17675C9.52148 7.583 10.4053 8.98925 11.9141 10.5029C13.0225 11.6162 14.1797 12.5635 15.6494 13.5547C16.4307 14.082 16.4209 14.082 17.1973 13.5449C18.6328 12.5586 19.6777 11.7139 20.6738 10.7422C21.5186 9.91698 22.041 9.31152 22.5195 8.59863C23.3936 7.29491 23.7695 6.14745 23.7158 4.98046C23.6816 4.3164 23.5986 3.9746 23.335 3.43261C22.8613 2.47558 21.9385 1.72851 20.8154 1.40624C20.2734 1.24999 19.2871 1.24999 18.7353 1.40624C17.959 1.62597 17.3682 1.97265 16.7627 2.5537L16.4111 2.89062L16.1377 2.6123C15.5615 2.04101 14.9268 1.66015 14.1748 1.43554C13.6182 1.27441 12.7441 1.23046 12.2314 1.34765ZM13.6963 2.31933C14.2578 2.43652 14.873 2.77343 15.3516 3.22265C15.5762 3.44238 15.8301 3.7207 15.9131 3.85253C16.2256 4.34081 16.5967 4.3164 16.9629 3.78905C17.1875 3.46191 17.6465 3.02734 18.0127 2.79296C19.0137 2.15331 20.1221 2.07519 21.1426 2.57812C21.6602 2.83202 22.2363 3.40331 22.4756 3.90624C23.335 5.708 22.1777 8.16894 19.2871 10.708C18.667 11.25 17.4658 12.1777 16.7822 12.6416L16.4014 12.8955L15.708 12.4072C12.6172 10.2246 10.6934 8.02734 10.2051 6.12304C9.89257 4.90722 10.1269 3.92089 10.9082 3.14941C11.3477 2.71484 11.9922 2.37304 12.5488 2.28027C12.8271 2.23144 13.374 2.25097 13.6963 2.31933Z" fill="#6776FE"/>
<path d="M16.084 5.34178L15.918 5.5078V6.31835V7.12889H15.1074H14.2969L14.1309 7.29491C13.9502 7.47557 13.9209 7.6367 14.0332 7.85643C14.1455 8.07127 14.2871 8.10545 15.1367 8.10545H15.918V8.8867C15.918 9.73631 15.9522 9.87792 16.167 9.99022C16.4209 10.1221 16.7285 10.0293 16.8359 9.79002C16.875 9.70702 16.8945 9.38475 16.8945 8.8867V8.10545H17.6758C18.5352 8.10545 18.6816 8.07127 18.7891 7.8369C18.8867 7.62206 18.8574 7.47069 18.6816 7.29491L18.5156 7.12889H17.7051H16.8945V6.31835V5.5078L16.7285 5.34178C16.6113 5.21971 16.5186 5.17577 16.4063 5.17577C16.294 5.17577 16.2061 5.21971 16.084 5.34178Z" fill="#6776FE"/>
<path d="M7.2754 14.0332C6.84571 14.1309 6.51368 14.248 5.73731 14.5947L5.00489 14.917L2.64649 14.9414L0.283209 14.9658L0.141607 15.1269L5.80596e-06 15.2832V18.8281C5.80596e-06 22.6709 -0.004877 22.5684 0.268561 22.6953C0.468756 22.7881 4.7461 22.7783 4.92676 22.6855C5.10255 22.5928 5.17579 22.417 5.17579 22.0703V21.7822L5.43458 21.8066C6.52833 21.9141 7.37794 22.1289 8.54493 22.583C10.8008 23.4668 11.5332 23.6523 13.0127 23.7158C13.5742 23.7353 13.877 23.7256 14.3066 23.6621C14.9658 23.5644 16.084 23.2861 16.958 22.998C17.5098 22.8174 17.5928 22.7783 17.6807 22.6416C17.8076 22.4316 17.7979 22.251 17.6514 22.0801C17.4561 21.8457 17.3633 21.8506 16.4941 22.124C14.6387 22.7051 13.667 22.8418 12.4268 22.7051C11.4746 22.5976 10.7178 22.3877 9.33106 21.8408C7.80274 21.2402 6.9336 20.9912 6.01075 20.8984C5.72755 20.8643 5.41993 20.8301 5.33692 20.8203L5.17579 20.7959V18.3301C5.17579 16.0254 5.18067 15.8642 5.26368 15.835C5.30762 15.8203 5.70801 15.6543 6.15235 15.4687C6.59669 15.2783 7.11915 15.0879 7.31934 15.0342C8.0127 14.8584 8.8086 14.9512 9.47266 15.2832C9.63868 15.3662 10.2832 15.7226 10.9082 16.0742C11.5283 16.4258 12.1143 16.748 12.207 16.792C12.3535 16.8603 12.6758 16.875 14.2871 16.8945L16.1963 16.9189L16.4307 17.0654C17.0166 17.4316 17.0313 18.2715 16.46 18.6768L16.25 18.8232L13.5059 18.8476C10.5176 18.8721 10.669 18.8574 10.5176 19.1553C10.4199 19.3408 10.4688 19.5459 10.6543 19.7021L10.8008 19.8291L13.5938 19.8144L16.3818 19.7998L17.7979 19.2725C22.8906 17.3682 22.7686 17.4121 23.0518 17.4072C23.3984 17.4072 23.7451 17.6074 23.8965 17.8955C24.0527 18.1934 24.0381 18.6279 23.8623 18.8867C23.7402 19.0723 23.3008 19.3848 23.1641 19.3848C23.1348 19.3848 23.0811 19.3164 23.0469 19.2383C22.959 19.0332 22.7295 18.8476 22.5488 18.8476C22.4463 18.8476 22.3535 18.8965 22.2363 19.0137C22.041 19.209 22.0264 19.3506 22.168 19.624L22.2607 19.8096L21.6895 20.0684C21.377 20.2051 21.0693 20.376 21.0107 20.4443C20.8545 20.6103 20.8594 20.8984 21.0156 21.0791C21.2109 21.3037 21.4307 21.2695 22.3145 20.8643C24.3164 19.9512 24.4727 19.8437 24.79 19.1992C24.9658 18.8476 24.9756 18.8037 24.9756 18.3643C24.9756 17.9394 24.9609 17.8662 24.8242 17.5781C24.7412 17.4023 24.5801 17.1582 24.4727 17.0361C24.0772 16.5918 23.3399 16.333 22.7588 16.4404C22.5977 16.4746 21.4551 16.8701 20.21 17.3291C18.9697 17.7881 17.9395 18.1641 17.9199 18.1641C17.9004 18.1641 17.8711 17.9883 17.8565 17.7734C17.7979 16.8799 17.1777 16.1523 16.3184 15.9717C16.1572 15.9375 15.4102 15.918 14.3408 15.918H12.6221L11.3525 15.2002C9.83399 14.3457 9.50684 14.1894 8.97462 14.0625C8.51075 13.9502 7.70997 13.9355 7.2754 14.0332ZM4.19922 18.8476V21.7773H2.5879H0.976568V18.8476V15.918H2.5879H4.19922V18.8476Z" fill="#6776FE"/>
<path d="M19.0137 21.2598C18.833 21.4404 18.8037 21.6015 18.916 21.8213C19.1455 22.2607 19.8242 22.0654 19.8242 21.5527C19.8242 21.3672 19.5362 21.0937 19.336 21.0937C19.2236 21.0937 19.1358 21.1377 19.0137 21.2598Z" fill="#6776FE"/>
</g>
<defs>
<clipPath id="clip0_173_370">
<rect width="25" height="25" fill="white"/>
</clipPath>
</defs>
</svg>
