<svg width="24" height="24" viewBox="0 0 24 24" fill="none" xmlns="http://www.w3.org/2000/svg">
<path d="M9.14373 20.7816V17.7148C9.14372 16.9376 9.77567 16.3062 10.5584 16.3013H13.4326C14.2189 16.3013 14.8563 16.9341 14.8563 17.7148V20.7727C14.8562 21.4468 15.404 21.9946 16.0829 21.9995H18.0438C18.9596 22.0018 19.8388 21.6423 20.4872 21.0002C21.1356 20.3581 21.5 19.4863 21.5 18.577V9.86536C21.5 9.1309 21.1721 8.43422 20.6046 7.96301L13.943 2.67378C12.7785 1.74863 11.1154 1.77852 9.98539 2.7449L3.46701 7.96301C2.87274 8.42033 2.51755 9.11907 2.5 9.86536V18.5681C2.5 20.4632 4.04738 21.9995 5.95617 21.9995H7.87229C8.19917 22.0018 8.51349 21.8746 8.74547 21.6459C8.97746 21.4173 9.10793 21.1062 9.10792 20.7816H9.14373Z" fill="#6776FE"/>
</svg>
