<svg width="20" height="20" viewBox="0 0 20 20" fill="none" xmlns="http://www.w3.org/2000/svg">
<path d="M1.41183 0.0399297C0.74009 0.172762 0.169889 0.750975 0.0410076 1.43858C-0.0136692 1.72769 -0.0136692 14.714 0.0410076 15.0031C0.173794 15.7064 0.74009 16.2729 1.44308 16.4057C1.57196 16.4291 2.62253 16.4448 4.17692 16.4448H6.70377L6.7936 17.2144C6.94591 18.531 6.97715 18.7029 7.12947 19.0077C7.27788 19.3124 7.61375 19.664 7.89104 19.8047C8.27768 20.0039 8.18395 20 13.4407 20C16.6159 20 18.4202 19.9844 18.5569 19.9609C19.2599 19.8281 19.8262 19.2616 19.959 18.5584C20.0137 18.2693 20.0137 5.28291 19.959 4.99381C19.8418 4.38434 19.4396 3.90771 18.8303 3.66157L18.6116 3.57172L14.1984 3.55218L9.7852 3.53265L9.66022 2.51687C9.58992 1.95819 9.51572 1.42295 9.49229 1.32919C9.38684 0.911156 9.01582 0.4228 8.64089 0.219645C8.23472 -0.00304556 8.23472 -0.00304556 4.76665 0.000861284C3.01699 0.00476813 1.50557 0.0203955 1.41183 0.0399297ZM8.11756 1.2784C8.18785 1.32919 8.26987 1.42295 8.30502 1.48937C8.34798 1.57141 8.62136 3.66548 9.20328 8.33416C9.66022 12.03 10.0469 15.1047 10.0547 15.1633L10.0781 15.2727H5.85628C1.70865 15.2727 1.63835 15.2727 1.48604 15.1946C1.3845 15.1438 1.30248 15.0617 1.25171 14.9602C1.1736 14.8078 1.1736 14.7453 1.1736 8.22086C1.1736 1.70034 1.1736 1.63392 1.25171 1.48156C1.29857 1.38779 1.3884 1.29793 1.47823 1.25105C1.61882 1.17291 1.69693 1.17291 4.8057 1.18073L7.98867 1.18854L8.11756 1.2784ZM18.514 4.80237C18.6155 4.85316 18.6975 4.9352 18.7483 5.03678C18.8264 5.18915 18.8264 5.25166 18.8264 11.7761C18.8264 18.3005 18.8264 18.363 18.7483 18.5154C18.6975 18.617 18.6155 18.699 18.514 18.7498C18.3616 18.8279 18.307 18.8279 13.6594 18.8201L8.95724 18.8084L10.1054 17.4801C10.8787 16.5854 11.2615 16.1088 11.2888 16.0189C11.3161 15.9134 11.1756 14.6711 10.6444 10.3931C10.2695 7.37308 9.95704 4.86097 9.94923 4.81019L9.93361 4.72424H14.1476C18.2913 4.72424 18.3616 4.72424 18.514 4.80237ZM8.79711 17.1988C8.43781 17.6168 8.12927 17.9606 8.10584 17.9645C8.07459 17.9684 7.90275 16.8237 7.89494 16.5307L7.89104 16.4448H8.67213H9.45323L8.79711 17.1988Z" fill="#6776FE"/>
<path d="M4.625 4.06464C4.32083 4.18126 4.33333 4.13461 3.64167 7.37293C3.2875 9.01347 3 10.3974 3 10.4441C3 10.7123 3.32083 11 3.625 11C3.82917 11 4.07083 10.8639 4.15833 10.6968C4.20417 10.619 4.32917 10.1292 4.4375 9.60826L4.6375 8.66748H5.5H6.3625L6.5625 9.60826C6.67083 10.1292 6.79583 10.619 6.84167 10.6968C6.92917 10.8639 7.17083 11 7.375 11C7.67917 11 8 10.7123 8 10.4441C8 10.3974 7.7125 9.01347 7.35833 7.37293C6.6625 4.11906 6.67917 4.18126 6.3625 4.06075C6.14583 3.97911 4.8375 3.97911 4.625 4.06464ZM5.8625 6.33496L6.1125 7.50122H5.5H4.8875L5.1375 6.33496L5.3875 5.1687H5.5H5.6125L5.8625 6.33496Z" fill="#6776FE"/>
<path d="M14.712 8.07641C14.48 8.19321 14.4 8.38398 14.4 8.81224V9.16263H13.44C12.552 9.16263 12.464 9.17042 12.32 9.24049C12.14 9.33004 12 9.55195 12 9.74662C12 10.0464 12.296 10.3306 12.608 10.3306C12.736 10.3306 12.744 10.3423 12.836 10.5915C13.096 11.3039 13.504 12.0436 13.948 12.6082L14.16 12.8807L13.972 13.0481C13.864 13.1415 13.544 13.4024 13.256 13.6243C12.912 13.8929 12.712 14.0798 12.668 14.1693C12.428 14.656 12.964 15.1855 13.452 14.9363C13.588 14.8701 14.088 14.4886 14.64 14.037C14.824 13.8812 14.988 13.7567 15 13.7567C15.012 13.7567 15.176 13.8812 15.36 14.037C15.912 14.4886 16.412 14.8701 16.548 14.9363C16.92 15.1232 17.4 14.8312 17.4 14.4224C17.4 14.1888 17.28 14.0448 16.744 13.6243C16.456 13.4024 16.136 13.1415 16.028 13.0481L15.84 12.8807L16.052 12.6082C16.496 12.0436 16.904 11.3039 17.164 10.5915C17.256 10.3423 17.264 10.3306 17.392 10.3306C17.704 10.3306 18 10.0464 18 9.74662C18 9.55195 17.86 9.33004 17.68 9.24049C17.536 9.17042 17.448 9.16263 16.56 9.16263H15.6V8.81224C15.6 8.37619 15.52 8.19321 15.28 8.07252C15.084 7.97519 14.904 7.97519 14.712 8.07641ZM15.96 10.3773C15.956 10.5603 15.104 12.0047 15 12.0047C14.896 12.0047 14.044 10.5603 14.04 10.3773C14.04 10.3423 14.26 10.3306 15 10.3306C15.74 10.3306 15.96 10.3423 15.96 10.3773Z" fill="#6776FE"/>
</svg>
