<svg width="25" height="25" viewBox="0 0 25 25" fill="none" xmlns="http://www.w3.org/2000/svg">
<path d="M0.991224 1.30859C0.502942 1.47949 0.156263 1.87012 0.0488409 2.36328C0.00977836 2.53906 1.27433e-05 4.79004 0.00977837 10.1074L0.0244268 17.6025L0.161146 17.8809C0.317396 18.1934 0.55177 18.4229 0.874036 18.5742C1.09376 18.6768 1.15236 18.6768 4.86818 18.6914L8.64259 18.7012V20.5078V22.3145H6.59181C4.62892 22.3145 4.52638 22.3193 4.34572 22.4121C4.12599 22.5244 3.95509 22.8027 3.95509 23.0469C3.95509 23.291 4.12599 23.5693 4.34572 23.6816C4.53614 23.7793 4.61427 23.7793 12.5 23.7793C20.3858 23.7793 20.4639 23.7793 20.6543 23.6816C20.874 23.5693 21.0449 23.291 21.0449 23.0469C21.0449 22.8027 20.874 22.5244 20.6543 22.4121C20.4736 22.3193 20.3711 22.3145 18.4082 22.3145H16.3574V20.5078V18.7012L20.1318 18.6914C23.8477 18.6768 23.9063 18.6768 24.126 18.5742C24.4482 18.4229 24.6826 18.1934 24.8389 17.8809L24.9756 17.6025V9.96094V2.31934L24.8389 2.04102C24.6826 1.72852 24.4482 1.49902 24.126 1.34766L23.9014 1.24512L12.5733 1.23535C1.79689 1.22559 1.23048 1.22559 0.991224 1.30859ZM23.5352 9.96094V17.2363H12.5H1.46486V9.96094V2.68555H12.5H23.5352V9.96094ZM14.8926 20.5078V22.3145H12.5H10.1074V20.5078V18.7012H12.5H14.8926V20.5078Z" fill="#6776FE"/>
</svg>
