<svg width="24" height="24" viewBox="0 0 24 24" fill="none" xmlns="http://www.w3.org/2000/svg">
<path d="M2.47968 3.81563C2.24999 3.97501 2.13749 4.21876 2.16562 4.50938C2.19374 4.79532 2.31093 4.95938 2.57812 5.09532L2.78437 5.20313H8.775H14.7656V7.96407V10.7203L14.8688 10.875C14.9297 10.9594 15.0375 11.0766 15.1078 11.1281C15.2391 11.2266 15.2813 11.2266 18.3188 11.2406L21.3985 11.2547L21.9469 11.9672L22.5 12.6797V14.6109V16.5469H21.7781H21.0563L20.9578 16.2516C20.6953 15.4688 19.9219 14.7094 19.1016 14.4375C17.5406 13.9172 15.8016 14.7563 15.2859 16.275L15.2016 16.5234H12.9656H10.7297L10.5984 16.1859C10.3359 15.5203 9.83438 14.9672 9.1875 14.6297C8.73281 14.3906 8.325 14.2875 7.82813 14.2875C7.29844 14.2828 6.94688 14.3625 6.49219 14.5781C5.75625 14.9344 5.15625 15.5953 4.93594 16.2984L4.86094 16.5422L3.77812 16.5563C2.58749 16.5703 2.50312 16.5891 2.27812 16.8891C2.13281 17.0859 2.13749 17.5453 2.28749 17.7563C2.49843 18.0516 2.57812 18.0703 3.78281 18.0844L4.86562 18.1031L4.96875 18.375C5.19375 18.9703 5.79375 19.6547 6.36094 19.9594C6.96562 20.2781 7.85625 20.3906 8.50781 20.2266C9.45938 19.9875 10.2563 19.2844 10.5984 18.3891L10.7109 18.0938H12.9656H15.2156L15.3 18.3516C15.4078 18.6984 15.7875 19.2563 16.1156 19.5469C16.4203 19.8188 17.0953 20.1703 17.475 20.2453C17.8688 20.325 18.5016 20.3063 18.9141 20.2031C19.7953 19.9781 20.5735 19.2891 20.9203 18.4219L21.0422 18.1172L22.2516 18.0938C23.4094 18.0703 23.4703 18.0656 23.6344 17.9625C23.7328 17.9016 23.8453 17.775 23.9016 17.6531C23.9953 17.4609 24 17.3906 24 14.9016C24 13.3734 23.9813 12.2859 23.9531 12.1875C23.925 12.0938 23.5922 11.6203 23.175 11.0859L22.4438 10.1484L21.3188 7.89845C20.7 6.66095 20.1422 5.57813 20.0766 5.48907C19.861 5.20782 19.8188 5.20313 17.9578 5.20313H16.275L16.2563 4.6922C16.2422 4.12501 16.1953 4.0172 15.8906 3.80626L15.7359 3.70313H9.19219H2.64843L2.47968 3.81563ZM19.7813 8.20313C20.1938 9.02813 20.5313 9.71251 20.5313 9.72657C20.5313 9.74063 19.5703 9.75001 18.3985 9.75001H16.2656V8.22657V6.70313H17.6484H19.0313L19.7813 8.20313ZM8.32969 15.8953C8.68594 16.0313 9 16.3313 9.16406 16.6969C9.27656 16.95 9.29063 17.0203 9.27188 17.3625C9.24375 17.8266 9.10313 18.1359 8.78438 18.4125C8.1 19.0172 7.04531 18.8859 6.55312 18.1313C6.13125 17.4891 6.21094 16.7438 6.75937 16.2094C7.17188 15.8109 7.77188 15.6891 8.32969 15.8953ZM18.7688 15.9328C19.7016 16.3875 19.9172 17.6484 19.1813 18.3609C18.4547 19.0688 17.25 18.8766 16.7953 17.9859C16.3688 17.1375 16.7953 16.1391 17.7188 15.8391C17.9531 15.7641 18.525 15.8156 18.7688 15.9328Z" fill="#6776FE"/>
<path d="M1.65941 6.8625C1.37347 6.98907 1.18597 7.36876 1.26097 7.6922C1.31722 7.94063 1.43909 8.09532 1.65941 8.20313C1.86097 8.29688 1.90784 8.29688 5.28753 8.28751C8.6766 8.27345 8.7141 8.27345 8.84535 8.17501C8.91566 8.12345 9.02347 8.00626 9.08441 7.92188C9.30003 7.60313 9.16878 7.09688 8.81253 6.89532C8.6391 6.79688 8.61566 6.79688 5.22191 6.79688C2.46566 6.80157 1.77659 6.81094 1.65941 6.8625Z" fill="#6776FE"/>
<path d="M0.42186 9.85312C0.135923 9.99844 -0.00938992 10.2562 0.0140476 10.5609C0.0374851 10.8141 0.14061 10.9875 0.374985 11.1422L0.529673 11.25H3.98436H7.43905L7.59374 11.1422C7.81874 10.9922 7.93124 10.8187 7.95468 10.5891C7.9828 10.2891 7.82343 9.99375 7.54686 9.85312L7.34061 9.75H3.98436H0.62811L0.42186 9.85312Z" fill="#6776FE"/>
<path d="M1.60774 12.8438C1.2093 13.0875 1.12493 13.6453 1.43899 13.9782C1.69211 14.25 1.70149 14.25 3.74055 14.25C5.60617 14.25 5.61086 14.25 5.81711 14.1422C6.22961 13.9219 6.35149 13.3735 6.06086 13.0313C5.8218 12.7453 5.8593 12.75 3.71711 12.75C1.85618 12.75 1.74836 12.7547 1.60774 12.8438Z" fill="#6776FE"/>
</svg>
