<svg width="13" height="13" viewBox="0 0 13 13" fill="none" xmlns="http://www.w3.org/2000/svg">
<path d="M7.88559 5.70408H12.2773C12.3996 5.70408 12.4905 5.74425 12.5504 5.80414C12.6103 5.86403 12.6504 5.95487 12.6504 6.07727V7.1106C12.6504 7.233 12.6103 7.32384 12.5504 7.38373C12.4905 7.44362 12.3996 7.48379 12.2773 7.48379H7.88559C7.77548 7.48379 7.67258 7.52112 7.59684 7.59686C7.5211 7.67259 7.48378 7.7755 7.48378 7.8856V12.2773C7.48378 12.3997 7.4436 12.4905 7.38372 12.5504C7.32383 12.6103 7.23298 12.6505 7.11059 12.6505H6.07725C5.95486 12.6505 5.86401 12.6103 5.80413 12.5504C5.74424 12.4905 5.70407 12.3997 5.70407 12.2773V7.8856C5.70407 7.7755 5.66674 7.67259 5.591 7.59686C5.51526 7.52112 5.41236 7.48379 5.30225 7.48379H0.910588C0.788193 7.48379 0.697346 7.44362 0.637459 7.38373C0.577571 7.32384 0.537399 7.233 0.537399 7.1106V6.07727C0.537399 5.95487 0.577571 5.86403 0.637459 5.80414C0.697346 5.74425 0.788193 5.70408 0.910588 5.70408H5.30225C5.41236 5.70408 5.51526 5.66675 5.591 5.59102C5.66674 5.51528 5.70407 5.41237 5.70407 5.30227V0.910603C5.70407 0.788208 5.74424 0.697361 5.80413 0.637474C5.86401 0.577586 5.95486 0.537414 6.07725 0.537414H7.11059C7.23298 0.537414 7.32383 0.577586 7.38372 0.637474C7.4436 0.697361 7.48378 0.788208 7.48378 0.910603V5.30227C7.48378 5.41237 7.5211 5.51528 7.59684 5.59102C7.67258 5.66675 7.77548 5.70408 7.88559 5.70408Z" fill="white" stroke="white" stroke-width="0.286957"/>
</svg>
