<svg width="24" height="24" viewBox="0 0 24 24" fill="none" xmlns="http://www.w3.org/2000/svg">
<path d="M14.4062 1.08247C12.9496 1.40044 11.8238 2.47036 11.4371 3.90122C11.3555 4.19341 11.3383 4.39536 11.3211 5.24185L11.3039 6.24302H9.61094C7.99531 6.24302 7.90508 6.24732 7.74609 6.32896C7.63437 6.38482 7.54414 6.47505 7.48828 6.58677C7.40664 6.75005 7.40234 6.83599 7.40234 9.07896V11.3993H4.45898C1.58867 11.3993 1.50703 11.4036 1.34375 11.4852C1.23203 11.5411 1.1418 11.6313 1.08594 11.743C1 11.9106 1 11.9879 1 16.5727C1 19.8856 1.01289 21.2993 1.04727 21.4625C1.20625 22.2016 1.79922 22.7946 2.53828 22.9536C2.86055 23.0223 21.1352 23.0223 21.4617 22.9536C22.1922 22.7989 22.798 22.1887 22.9527 21.4625C22.9871 21.2993 23 19.1336 23 13.9946C23 6.8231 23 6.75435 22.9141 6.58677C22.8582 6.47505 22.768 6.38482 22.6562 6.32896C22.4973 6.24732 22.407 6.24302 20.7699 6.24302H19.0555L19.0383 5.24185C19.0211 4.39536 19.0039 4.19341 18.9223 3.90122C18.557 2.53911 17.4957 1.47779 16.1465 1.12544C15.648 0.996534 14.8832 0.97505 14.4062 1.08247ZM15.7984 2.37583C16.284 2.50044 16.6148 2.6895 16.9844 3.06333C17.3582 3.43286 17.5473 3.76372 17.6719 4.24927C17.7449 4.52427 17.7578 4.72622 17.7578 5.41372V6.24302H15.1797H12.6016V5.41372C12.6016 4.72622 12.6145 4.52427 12.6875 4.24927C12.8121 3.75943 13.0012 3.43286 13.375 3.05903C14.0367 2.39732 14.9176 2.1481 15.7984 2.37583ZM11.3555 7.9188C11.3555 8.39146 11.4328 8.58052 11.6906 8.72661C11.9012 8.84263 12.0816 8.84692 12.3008 8.73521C12.5586 8.602 12.6445 8.40005 12.6445 7.9188V7.53208H15.2227H17.8008V7.9188C17.8008 8.39146 17.8781 8.58052 18.1359 8.72661C18.3465 8.84263 18.527 8.84692 18.7461 8.73521C19.0039 8.602 19.0898 8.40005 19.0898 7.9188V7.53208H20.4004H21.7109V14.3641C21.7109 21.1317 21.7109 21.2004 21.625 21.368C21.5691 21.4797 21.4789 21.57 21.3672 21.6258C21.2039 21.7075 21.118 21.7118 18.8277 21.7118H16.4602L16.4945 21.5915C16.5117 21.527 16.5332 19.3227 16.5418 16.6973C16.5547 11.9579 16.5547 11.9149 16.4687 11.743C16.4129 11.6313 16.3227 11.5411 16.2109 11.4852C16.0477 11.3993 15.966 11.3993 12.3652 11.3993H8.69141V9.46568V7.53208H10.0234H11.3555V7.9188ZM15.2656 16.9422C15.2656 21.1231 15.2656 21.2004 15.1797 21.368C15.1238 21.4797 15.0336 21.57 14.9219 21.6258C14.7543 21.7118 14.6812 21.7118 8.77734 21.7118C2.87344 21.7118 2.80039 21.7118 2.63281 21.6258C2.52109 21.57 2.43086 21.4797 2.375 21.368C2.28906 21.2004 2.28906 21.1231 2.28906 16.9422V12.6883H8.77734H15.2656V16.9422Z" fill="#AAACAE"/>
<path d="M5.24531 14.0677C5.14219 14.1192 5.04766 14.2181 4.9918 14.3298C4.90586 14.4974 4.90156 14.5575 4.92305 15.2021C4.94023 15.7091 4.96602 15.9798 5.03477 16.2333C5.4043 17.6169 6.4914 18.6825 7.90507 19.0349C8.34765 19.1466 9.29296 19.1337 9.74413 19.0091C11.1062 18.6439 12.159 17.5868 12.5199 16.2333C12.5887 15.9798 12.6144 15.7091 12.6316 15.2021C12.6531 14.5575 12.6488 14.4974 12.5629 14.3298C12.4598 14.1278 12.2191 13.9774 12 13.9774C11.7851 13.9774 11.5402 14.1278 11.4414 14.3212C11.3683 14.463 11.3555 14.5747 11.3555 15.0216C11.3555 15.954 11.1492 16.504 10.582 17.0712C10.2125 17.445 9.88593 17.6341 9.39609 17.7587C8.97499 17.8661 8.57968 17.8661 8.15859 17.7587C7.68164 17.6384 7.34648 17.445 6.97265 17.0712C6.40547 16.5126 6.19922 15.9583 6.19922 15.0216C6.19922 14.5747 6.18633 14.463 6.11328 14.3212C5.9543 14.0075 5.56758 13.8958 5.24531 14.0677Z" fill="#AAACAE"/>
</svg>
