<svg width="27" height="26" viewBox="0 0 27 26" fill="none" xmlns="http://www.w3.org/2000/svg">
<g clip-path="url(#clip0_39_149)">
<path d="M7.40816 0.0851844C6.86375 0.240018 6.41423 0.61961 6.17449 1.13905L6.03464 1.43873V12.8015V24.1643L6.17449 24.464C6.41922 24.9934 6.86874 25.368 7.43313 25.5179C7.80274 25.6177 18.701 25.6177 19.0706 25.5179C19.635 25.368 20.0845 24.9934 20.3293 24.464L20.4691 24.1643V12.8015V1.43873L20.3293 1.13905C20.0845 0.609621 19.635 0.235023 19.0706 0.0851844C18.716 -0.00971366 7.7478 -0.00971366 7.40816 0.0851844ZM18.9108 0.919288C19.0157 0.944261 19.1805 1.03916 19.2804 1.12906C19.5551 1.3688 19.645 1.61354 19.645 2.12299V2.56252H13.2519H6.85875V2.12299C6.85875 1.63352 6.94866 1.38379 7.19839 1.14904C7.50805 0.859352 7.25832 0.869342 13.2269 0.864347C16.9129 0.864347 18.7809 0.884326 18.9108 0.919288ZM19.645 11.5279V19.6442H13.2519H6.85875V11.5279V3.41161H13.2519H19.645V11.5279ZM19.645 22.2014C19.645 23.7498 19.635 23.9346 19.5501 24.1144C19.4352 24.3691 19.1555 24.6188 18.9108 24.6838C18.6461 24.7587 7.85768 24.7587 7.59296 24.6838C7.34823 24.6188 7.06853 24.3691 6.95365 24.1144C6.86874 23.9346 6.85875 23.7498 6.85875 22.2014V20.4933H13.2519H19.645V22.2014Z" fill="#6776FE"/>
<path d="M11.269 1.42374C11.1192 1.59356 11.0992 1.69845 11.1741 1.88325C11.274 2.12799 11.4388 2.16295 12.4078 2.16295C13.2519 2.16295 13.4667 2.12799 13.5815 1.97315C13.6914 1.8333 13.6665 1.54361 13.5366 1.42374C13.4267 1.31886 13.3768 1.31386 12.3978 1.31386C11.3989 1.31386 11.3689 1.31886 11.269 1.42374Z" fill="#6776FE"/>
<path d="M14.2508 1.41375C14.0261 1.63851 14.086 1.97315 14.3757 2.08802C14.7603 2.25285 15.2447 2.13797 15.3396 1.86826C15.4046 1.68845 15.3796 1.58856 15.2348 1.42374C15.1449 1.32884 15.0849 1.31386 14.7403 1.31386C14.4206 1.31386 14.3357 1.32884 14.2508 1.41375Z" fill="#6776FE"/>
<path d="M12.8173 20.9678C12.4877 21.0577 12.233 21.2175 11.9832 21.4922C11.6786 21.8318 11.5787 22.0965 11.5787 22.591C11.5787 22.9706 11.5937 23.0505 11.7435 23.3502C11.9233 23.7148 12.178 23.9695 12.5476 24.1493C12.8773 24.3141 13.6265 24.3141 13.9561 24.1493C14.3257 23.9695 14.5804 23.7148 14.7603 23.3502C14.9101 23.0505 14.9251 22.9706 14.9251 22.591C14.9251 22.0965 14.8252 21.8318 14.5205 21.4922C14.2658 21.2125 14.0161 21.0577 13.6664 20.9678C13.3218 20.8779 13.157 20.8779 12.8173 20.9678ZM13.5765 21.8368C14.4156 22.2164 14.1659 23.4401 13.2519 23.4401C12.5526 23.4401 12.1481 22.611 12.5876 22.0865C12.7374 21.9117 13.0571 21.7419 13.2519 21.7419C13.3218 21.7419 13.4666 21.7869 13.5765 21.8368Z" fill="#6776FE"/>
<path d="M1.7892 2.108C0.765304 3.17685 0.280825 4.79012 0.540545 6.26354C0.680395 7.05768 1.01504 7.84184 1.48453 8.45118C1.94903 9.05054 2.23373 9.19039 2.48845 8.93067C2.69823 8.72589 2.65827 8.51612 2.35859 8.17149C1.84914 7.59211 1.49452 6.82793 1.36466 6.04877C1.17986 4.90999 1.54946 3.68131 2.3536 2.74731C2.56337 2.50258 2.61332 2.41267 2.61332 2.26284C2.61332 2.02309 2.4485 1.86326 2.20376 1.86326C2.05392 1.86326 1.98399 1.90322 1.7892 2.108Z" fill="#6776FE"/>
<path d="M24.0004 1.97814C23.8056 2.18292 23.8505 2.39769 24.1552 2.74731C24.9543 3.68131 25.3239 4.90999 25.1391 6.04877C25.0093 6.82793 24.6547 7.59211 24.1452 8.17149C23.8455 8.51612 23.8056 8.72589 24.0153 8.93067C24.2701 9.19039 24.5548 9.05054 25.0193 8.45118C25.4888 7.84184 25.8234 7.05768 25.9632 6.26354C26.223 4.79012 25.7385 3.17685 24.7146 2.108C24.5148 1.89823 24.4499 1.86326 24.295 1.86326C24.1652 1.86326 24.0753 1.89823 24.0004 1.97814Z" fill="#6776FE"/>
<path d="M3.63722 2.89717C3.40746 3.13191 3.06783 3.65135 2.92298 3.99598C2.65827 4.62531 2.58335 5.48938 2.73319 6.20861C2.87304 6.87789 3.44742 7.84185 3.81702 8.03664C4.00183 8.12655 4.16665 8.10157 4.31149 7.94674C4.48131 7.76194 4.44135 7.56215 4.16665 7.21752C3.70714 6.64813 3.51235 6.10871 3.51235 5.40947C3.51235 4.69523 3.72213 4.11586 4.18163 3.56145C4.45134 3.2368 4.4913 3.00205 4.29651 2.82225C4.10671 2.64244 3.86198 2.67241 3.63722 2.89717Z" fill="#6776FE"/>
<path d="M22.2173 2.93711C22.0125 3.1369 22.0474 3.34168 22.3421 3.71128C22.8066 4.28566 22.9914 4.80011 22.9914 5.51934C22.9914 6.22358 22.7866 6.78797 22.3171 7.35736C22.0474 7.68201 22.0225 7.89179 22.2173 8.08158C22.432 8.29635 22.6168 8.2564 22.9465 7.91177C23.9304 6.87788 24.1352 5.13475 23.4309 3.79619C23.3111 3.57643 23.0913 3.26176 22.9415 3.10194C22.6168 2.7623 22.427 2.72234 22.2173 2.93711Z" fill="#6776FE"/>
</g>
<defs>
<clipPath id="clip0_39_149">
<rect width="25.5725" height="25.5725" fill="white" transform="translate(0.465637 0.0152588)"/>
</clipPath>
</defs>
</svg>
