<svg width="20" height="20" viewBox="0 0 20 20" fill="none" xmlns="http://www.w3.org/2000/svg">
<path d="M19.9824 7.72474C19.9401 7.59515 19.8281 7.50064 19.6931 7.48095L13.217 6.53978L10.3209 0.671562C10.2607 0.549128 10.1361 0.471802 10.0001 0.471802C9.86406 0.471802 9.73912 0.549128 9.67934 0.671562L6.78282 6.54014L0.306722 7.48131C0.171758 7.501 0.0600646 7.59515 0.0174634 7.7251C-0.0244218 7.85434 0.0103036 7.99682 0.108036 8.09169L4.79452 12.6597L3.68797 19.11C3.66505 19.2442 3.72019 19.3799 3.83009 19.4601C3.94071 19.541 4.08713 19.5514 4.20706 19.4873L10.0001 16.4422L15.7924 19.4873C15.8447 19.5149 15.9023 19.5285 15.9593 19.5285C16.0334 19.5285 16.1071 19.5056 16.1698 19.4601C16.28 19.3799 16.3351 19.2442 16.3119 19.11L15.2057 12.66L19.8922 8.09169C19.9895 7.9961 20.0246 7.85398 19.9824 7.72474Z" fill="#F2C94C"/>
</svg>
