<svg width="25" height="25" viewBox="0 0 25 25" fill="none" xmlns="http://www.w3.org/2000/svg">
<path d="M4.74121 0.0537109C4.17968 0.161133 3.58398 0.595703 3.30078 1.1084C3.01269 1.61621 3.02734 1.04004 3.02734 12.0654C3.02734 23.1396 3.00781 22.4072 3.30078 22.7881C3.36914 22.8809 3.53027 23.0127 3.6621 23.0859L3.89648 23.2178L3.91601 23.6816C3.93066 23.9795 3.96484 24.1992 4.01367 24.292C4.12597 24.502 4.37988 24.7461 4.60937 24.8682L4.80956 24.9756H12.5H20.1904L20.3906 24.8682C20.6201 24.7461 20.874 24.502 20.9863 24.292C21.0351 24.1992 21.0693 23.9795 21.084 23.6816L21.1035 23.2178L21.3379 23.0859C21.4697 23.0127 21.6308 22.8809 21.6992 22.7881C21.9922 22.4072 21.9726 23.1396 21.9726 12.0654C21.9726 1.04004 21.9873 1.61621 21.6992 1.1084C21.4062 0.581055 20.8252 0.166016 20.2197 0.0488281C19.8926 -0.00976562 5.05859 -0.00976562 4.74121 0.0537109ZM20.3857 0.947266C20.6787 1.08887 20.9082 1.31836 21.04 1.61133C21.1328 1.81641 21.1426 1.92871 21.1426 3.50098V5.17578H12.5H3.85742V3.50098C3.85742 1.8457 3.85742 1.83105 3.9746 1.58691C4.11621 1.29395 4.3457 1.06445 4.63867 0.932617C4.85839 0.834961 4.92187 0.830078 12.5 0.830078H20.1416L20.3857 0.947266ZM21.1426 14.1064V22.207L20.9912 22.334L20.8398 22.4609H12.5H4.16015L4.00878 22.334L3.85742 22.207V14.1064V6.00586H12.5H21.1426V14.1064ZM20.3125 23.5107C20.3125 23.7793 20.2099 24.0479 20.0781 24.1162C19.9365 24.1895 5.06347 24.1895 4.92187 24.1162C4.79003 24.0479 4.68749 23.7793 4.68749 23.5107V23.291H12.5H20.3125V23.5107Z" fill="#6776FE"/>
<path d="M5.83008 1.75781C5.59082 1.81152 5.37109 1.99707 5.26855 2.2168C5.19531 2.37793 5.17578 2.53906 5.17578 2.99805C5.17578 3.71094 5.25879 3.93066 5.59082 4.12598L5.80078 4.24805L8.87695 4.23828C11.9141 4.22363 11.958 4.22363 12.0947 4.12109C12.168 4.06738 12.2803 3.94531 12.3438 3.85742C12.4414 3.71094 12.4512 3.64258 12.4512 3.00293C12.4512 2.36328 12.4414 2.29492 12.3438 2.14844C12.1973 1.93359 12.0215 1.81152 11.7871 1.75781C11.5625 1.7041 6.0498 1.7041 5.83008 1.75781ZM11.6699 3.00293V3.4668H8.83789H6.00586V3.00293V2.53906H8.83789H11.6699V3.00293Z" fill="#6776FE"/>
<path d="M14.8584 1.76269C14.4775 1.83105 14.1797 2.05078 13.999 2.38769C13.7109 2.91504 13.794 3.46191 14.2285 3.88672C14.5264 4.17969 14.7998 4.27246 15.2295 4.2334C15.5566 4.2041 15.7471 4.12109 15.9668 3.89648C16.5869 3.27637 16.4307 2.25098 15.6592 1.88965C15.3564 1.74316 15.1367 1.70898 14.8584 1.76269ZM15.376 2.66601C15.498 2.76367 15.5273 2.83203 15.5273 2.97851C15.5273 3.33008 15.2344 3.53027 14.9072 3.39355C14.458 3.20312 14.6191 2.55859 15.1221 2.54394C15.1807 2.53906 15.293 2.59765 15.376 2.66601Z" fill="#6776FE"/>
<path d="M18.3154 1.76269C17.3242 1.94824 16.9482 3.17382 17.6611 3.88671C17.8955 4.12109 18.0957 4.20898 18.457 4.23828C18.8672 4.26757 19.1992 4.13085 19.4775 3.833C20.2832 2.95898 19.4922 1.54785 18.3154 1.76269ZM18.8867 2.70996C19.0967 2.9541 18.9941 3.31054 18.6816 3.41796C18.374 3.51562 18.1152 3.31542 18.1152 2.97363C18.1152 2.71972 18.3496 2.51953 18.5986 2.55859C18.7012 2.57324 18.8183 2.63671 18.8867 2.70996Z" fill="#6776FE"/>
<path d="M11.9629 7.37793C9.03807 7.59766 6.56737 9.6875 5.83495 12.5488C5.43456 14.126 5.6201 15.8399 6.34764 17.2803C7.85643 20.2783 11.2158 21.7529 14.4287 20.8252C16.8603 20.1221 18.7256 18.0908 19.2334 15.5957C19.8047 12.7881 18.5937 9.97559 16.1328 8.38867C14.9707 7.6416 13.4277 7.26563 11.9629 7.37793ZM13.3545 8.22754C14.8877 8.45215 16.25 9.21875 17.1875 10.3857C17.5684 10.8545 17.6904 11.0498 17.9492 11.5723C18.6377 12.9688 18.75 14.6533 18.2568 16.1328C17.5732 18.1836 15.8398 19.7266 13.7207 20.1709C13.0029 20.3174 11.9971 20.3174 11.2793 20.1709C9.80956 19.8633 8.5205 19.0332 7.61718 17.8174C6.28905 16.0254 6.06444 13.5742 7.05077 11.5723C7.30956 11.0498 7.43163 10.8545 7.81249 10.3857C9.12108 8.75489 11.2646 7.91992 13.3545 8.22754Z" fill="#6776FE"/>
<path d="M11.499 9.17969C10.4004 9.41895 9.5459 9.8877 8.80371 10.6592C8.22265 11.2695 7.85156 11.8897 7.59277 12.6758C7.42187 13.1934 7.36328 13.6035 7.36328 14.2578C7.36816 16.7871 9.19433 18.9063 11.7187 19.3164C13.335 19.5801 15.0879 18.9844 16.2109 17.793C17.1435 16.8067 17.6318 15.5908 17.6367 14.2578C17.6367 13.6035 17.5781 13.1934 17.4072 12.6758C17.1484 11.8897 16.7773 11.2695 16.1963 10.6592C15.5371 9.97071 14.7168 9.48731 13.7793 9.24316C13.1201 9.07227 12.1289 9.04297 11.499 9.17969ZM12.915 9.91211C13.5351 9.98535 13.8721 10.083 14.3896 10.3272C15.498 10.8643 16.3037 11.8262 16.6846 13.0713C16.7969 13.4522 16.8115 13.584 16.8115 14.209C16.8164 14.79 16.7969 14.9854 16.709 15.3076C16.1719 17.2559 14.4873 18.5547 12.5 18.5547C10.5127 18.5547 8.82812 17.2559 8.29101 15.3076C8.20312 14.9854 8.18359 14.79 8.18848 14.209C8.18848 13.584 8.20312 13.4522 8.31543 13.0713C8.85254 11.3184 10.2539 10.1221 12.0215 9.91699C12.2168 9.89258 12.4023 9.87305 12.4268 9.86817C12.456 9.86817 12.6758 9.8877 12.915 9.91211Z" fill="#6776FE"/>
<path d="M12.3291 10.8447C12.1777 10.9375 12.1143 11.0449 12.1143 11.2061C12.1143 11.4697 12.3193 11.6211 12.6807 11.6211C13.208 11.6211 13.8818 11.9336 14.3408 12.3926C14.79 12.8418 15.0391 13.3838 15.1123 14.0869C15.1465 14.4141 15.21 14.5264 15.3955 14.5947C15.5469 14.6533 15.6543 14.624 15.8106 14.4873C15.8984 14.4043 15.918 14.3359 15.918 14.1162C15.9131 12.7441 14.8828 11.3965 13.501 10.957C13.0664 10.8203 12.4658 10.7617 12.3291 10.8447Z" fill="#6776FE"/>
</svg>
